<svg width="156" height="65" viewBox="0 0 156 65" fill="none" xmlns="http://www.w3.org/2000/svg">
<rect width="156" height="65" rx="32.5" fill="url(#paint0_linear_61_312)"/>
<path d="M46.54 25.6C47.74 25.6 48.7933 25.8067 49.7 26.22C50.6067 26.6333 51.38 27.2467 52.02 28.06L50.48 29.84C49.9333 29.1467 49.3333 28.64 48.68 28.32C48.04 27.9867 47.2933 27.82 46.44 27.82C45.88 27.82 45.4133 27.8933 45.04 28.04C44.68 28.1867 44.4133 28.38 44.24 28.62C44.08 28.86 44 29.1267 44 29.42C44 29.78 44.14 30.0867 44.42 30.34C44.7 30.58 45.18 30.78 45.86 30.94L48.32 31.5C49.6267 31.7933 50.56 32.2333 51.12 32.82C51.6933 33.3933 51.98 34.14 51.98 35.06C51.98 35.9267 51.7533 36.6733 51.3 37.3C50.8467 37.9133 50.2133 38.3867 49.4 38.72C48.5867 39.04 47.6533 39.2 46.6 39.2C45.68 39.2 44.8333 39.0933 44.06 38.88C43.3 38.6533 42.62 38.3467 42.02 37.96C41.42 37.5733 40.92 37.1267 40.52 36.62L42.08 34.76C42.3867 35.1867 42.7667 35.5667 43.22 35.9C43.6733 36.2333 44.1867 36.5 44.76 36.7C45.3467 36.8867 45.96 36.98 46.6 36.98C47.1467 36.98 47.6067 36.92 47.98 36.8C48.3667 36.6667 48.6533 36.4867 48.84 36.26C49.04 36.02 49.14 35.7333 49.14 35.4C49.14 35.0533 49.02 34.76 48.78 34.52C48.5533 34.2667 48.1267 34.0733 47.5 33.94L44.82 33.34C44.0467 33.1533 43.38 32.9133 42.82 32.62C42.2733 32.3133 41.8533 31.9267 41.56 31.46C41.28 30.98 41.14 30.4133 41.14 29.76C41.14 28.9733 41.3533 28.2667 41.78 27.64C42.2067 27.0133 42.82 26.52 43.62 26.16C44.4333 25.7867 45.4067 25.6 46.54 25.6ZM57.3511 25.8V39H54.5911V25.8H57.3511ZM66.2025 39.2C64.9892 39.2 63.9225 38.9333 63.0025 38.4C62.0958 37.8667 61.3892 37.0933 60.8825 36.08C60.3758 35.0667 60.1225 33.8467 60.1225 32.42C60.1225 31.0067 60.3892 29.7933 60.9225 28.78C61.4558 27.7533 62.2092 26.9667 63.1825 26.42C64.1558 25.8733 65.2958 25.6 66.6025 25.6C68.0292 25.6 69.1825 25.8667 70.0625 26.4C70.9425 26.92 71.6425 27.7333 72.1625 28.84L69.6025 29.94C69.3892 29.2333 69.0225 28.7133 68.5025 28.38C67.9958 28.0333 67.3692 27.86 66.6225 27.86C65.8758 27.86 65.2292 28.04 64.6825 28.4C64.1358 28.7467 63.7158 29.26 63.4225 29.94C63.1292 30.6067 62.9825 31.4267 62.9825 32.4C62.9825 33.4 63.1225 34.2467 63.4025 34.94C63.6825 35.62 64.0958 36.1333 64.6425 36.48C65.2025 36.8133 65.8892 36.98 66.7025 36.98C67.1425 36.98 67.5492 36.9267 67.9225 36.82C68.3092 36.7133 68.6425 36.5533 68.9225 36.34C69.2025 36.1267 69.4225 35.8533 69.5825 35.52C69.7425 35.1867 69.8225 34.8 69.8225 34.36V34.06H66.3625V32.04H72.2025V39H70.2625L70.0625 36.12L70.5425 36.46C70.2492 37.34 69.7292 38.02 68.9825 38.5C68.2492 38.9667 67.3225 39.2 66.2025 39.2ZM86.5756 25.8V39H83.4156L78.7956 31.24L77.6556 29.08H77.6356L77.7156 31.36V39H75.2356V25.8H78.3756L82.9956 33.54L84.1356 35.72H84.1756L84.0956 33.44V25.8H86.5756ZM98.8941 25.8V39H96.1341V25.8H98.8941ZM113.665 25.8V39H110.505L105.885 31.24L104.745 29.08H104.725L104.805 31.36V39H102.325V25.8H105.465L110.085 33.54L111.225 35.72H111.265L111.185 33.44V25.8H113.665Z" fill="white"/>
<defs>
<linearGradient id="paint0_linear_61_312" x1="20.4894" y1="32.4913" x2="137.189" y2="32.4913" gradientUnits="userSpaceOnUse">
<stop stop-color="#FF42A5"/>
<stop offset="1" stop-color="#FF42A5"/>
</linearGradient>
</defs>
</svg>
